<?xml version="1.0" encoding="utf-8" standalone="no"?>
<!DOCTYPE svg PUBLIC "-//W3C//DTD SVG 1.1//EN"
  "http://www.w3.org/Graphics/SVG/1.1/DTD/svg11.dtd">
<svg xmlns:xlink="http://www.w3.org/1999/xlink" width="460.8pt" height="345.6pt" viewBox="0 0 460.8 345.6" xmlns="http://www.w3.org/2000/svg" version="1.1">
 <metadata>
  <rdf:RDF xmlns:dc="http://purl.org/dc/elements/1.1/" xmlns:cc="http://creativecommons.org/ns#" xmlns:rdf="http://www.w3.org/1999/02/22-rdf-syntax-ns#">
   <cc:Work>
    <dc:type rdf:resource="http://purl.org/dc/dcmitype/StillImage"/>
    <dc:date>2023-06-10T14:46:59.162337</dc:date>
    <dc:format>image/svg+xml</dc:format>
    <dc:creator>
     <cc:Agent>
      <dc:title>Matplotlib v3.7.1, https://matplotlib.org/</dc:title>
     </cc:Agent>
    </dc:creator>
   </cc:Work>
  </rdf:RDF>
 </metadata>
 <defs>
  <style type="text/css">*{stroke-linejoin: round; stroke-linecap: butt}</style>
 </defs>
 <g id="figure_1">
  <g id="patch_1">
   <path d="M 0 345.6 
L 460.8 345.6 
L 460.8 0 
L 0 0 
z
" style="fill: #ffffff"/>
  </g>
  <g id="axes_1">
   <g id="patch_2">
    <path d="M 57.6 307.584 
L 414.72 307.584 
L 414.72 41.472 
L 57.6 41.472 
z
" style="fill: #ffffff"/>
   </g>
   <g id="patch_3">
    <path d="M 73.832727 307.584 
L 79.153736 307.584 
L 79.153736 305.373337 
L 73.832727 305.373337 
z
" clip-path="url(#p514d223646)" style="fill: #ff0000; opacity: 0.4; stroke: #000000; stroke-linejoin: miter"/>
   </g>
   <g id="patch_4">
    <path d="M 79.153736 307.584 
L 84.474745 307.584 
L 84.474745 303.162675 
L 79.153736 303.162675 
z
" clip-path="url(#p514d223646)" style="fill: #ff0000; opacity: 0.4; stroke: #000000; stroke-linejoin: miter"/>
   </g>
   <g id="patch_5">
    <path d="M 84.474745 307.584 
L 89.795753 307.584 
L 89.795753 307.584 
L 84.474745 307.584 
z
" clip-path="url(#p514d223646)" style="fill: #ff0000; opacity: 0.4; stroke: #000000; stroke-linejoin: miter"/>
   </g>
   <g id="patch_6">
    <path d="M 89.795753 307.584 
L 95.116762 307.584 
L 95.116762 300.952012 
L 89.795753 300.952012 
z
" clip-path="url(#p514d223646)" style="fill: #ff0000; opacity: 0.4; stroke: #000000; stroke-linejoin: miter"/>
   </g>
   <g id="patch_7">
    <path d="M 95.116762 307.584 
L 100.437771 307.584 
L 100.437771 300.952012 
L 95.116762 300.952012 
z
" clip-path="url(#p514d223646)" style="fill: #ff0000; opacity: 0.4; stroke: #000000; stroke-linejoin: miter"/>
   </g>
   <g id="patch_8">
    <path d="M 100.437771 307.584 
L 105.75878 307.584 
L 105.75878 305.373337 
L 100.437771 305.373337 
z
" clip-path="url(#p514d223646)" style="fill: #ff0000; opacity: 0.4; stroke: #000000; stroke-linejoin: miter"/>
   </g>
   <g id="patch_9">
    <path d="M 105.75878 307.584 
L 111.079788 307.584 
L 111.079788 305.373337 
L 105.75878 305.373337 
z
" clip-path="url(#p514d223646)" style="fill: #ff0000; opacity: 0.4; stroke: #000000; stroke-linejoin: miter"/>
   </g>
   <g id="patch_10">
    <path d="M 111.079788 307.584 
L 116.400797 307.584 
L 116.400797 303.162675 
L 111.079788 303.162675 
z
" clip-path="url(#p514d223646)" style="fill: #ff0000; opacity: 0.4; stroke: #000000; stroke-linejoin: miter"/>
   </g>
   <g id="patch_11">
    <path d="M 116.400797 307.584 
L 121.721806 307.584 
L 121.721806 296.530687 
L 116.400797 296.530687 
z
" clip-path="url(#p514d223646)" style="fill: #ff0000; opacity: 0.4; stroke: #000000; stroke-linejoin: miter"/>
   </g>
   <g id="patch_12">
    <path d="M 121.721806 307.584 
L 127.042815 307.584 
L 127.042815 278.845386 
L 121.721806 278.845386 
z
" clip-path="url(#p514d223646)" style="fill: #ff0000; opacity: 0.4; stroke: #000000; stroke-linejoin: miter"/>
   </g>
   <g id="patch_13">
    <path d="M 127.042815 307.584 
L 132.363823 307.584 
L 132.363823 278.845386 
L 127.042815 278.845386 
z
" clip-path="url(#p514d223646)" style="fill: #ff0000; opacity: 0.4; stroke: #000000; stroke-linejoin: miter"/>
   </g>
   <g id="patch_14">
    <path d="M 132.363823 307.584 
L 137.684832 307.584 
L 137.684832 289.898699 
L 132.363823 289.898699 
z
" clip-path="url(#p514d223646)" style="fill: #ff0000; opacity: 0.4; stroke: #000000; stroke-linejoin: miter"/>
   </g>
   <g id="patch_15">
    <path d="M 137.684832 307.584 
L 143.005841 307.584 
L 143.005841 265.581411 
L 137.684832 265.581411 
z
" clip-path="url(#p514d223646)" style="fill: #ff0000; opacity: 0.4; stroke: #000000; stroke-linejoin: miter"/>
   </g>
   <g id="patch_16">
    <path d="M 143.005841 307.584 
L 148.32685 307.584 
L 148.32685 274.424061 
L 143.005841 274.424061 
z
" clip-path="url(#p514d223646)" style="fill: #ff0000; opacity: 0.4; stroke: #000000; stroke-linejoin: miter"/>
   </g>
   <g id="patch_17">
    <path d="M 148.32685 307.584 
L 153.647858 307.584 
L 153.647858 254.528098 
L 148.32685 254.528098 
z
" clip-path="url(#p514d223646)" style="fill: #ff0000; opacity: 0.4; stroke: #000000; stroke-linejoin: miter"/>
   </g>
   <g id="patch_18">
    <path d="M 153.647858 307.584 
L 158.968867 307.584 
L 158.968867 267.792073 
L 153.647858 267.792073 
z
" clip-path="url(#p514d223646)" style="fill: #ff0000; opacity: 0.4; stroke: #000000; stroke-linejoin: miter"/>
   </g>
   <g id="patch_19">
    <path d="M 158.968867 307.584 
L 164.289876 307.584 
L 164.289876 278.845386 
L 158.968867 278.845386 
z
" clip-path="url(#p514d223646)" style="fill: #ff0000; opacity: 0.4; stroke: #000000; stroke-linejoin: miter"/>
   </g>
   <g id="patch_20">
    <path d="M 164.289876 307.584 
L 169.610885 307.584 
L 169.610885 223.578821 
L 164.289876 223.578821 
z
" clip-path="url(#p514d223646)" style="fill: #ff0000; opacity: 0.4; stroke: #000000; stroke-linejoin: miter"/>
   </g>
   <g id="patch_21">
    <path d="M 169.610885 307.584 
L 174.931893 307.584 
L 174.931893 241.264122 
L 169.610885 241.264122 
z
" clip-path="url(#p514d223646)" style="fill: #ff0000; opacity: 0.4; stroke: #000000; stroke-linejoin: miter"/>
   </g>
   <g id="patch_22">
    <path d="M 174.931893 307.584 
L 180.252902 307.584 
L 180.252902 201.472195 
L 174.931893 201.472195 
z
" clip-path="url(#p514d223646)" style="fill: #ff0000; opacity: 0.4; stroke: #000000; stroke-linejoin: miter"/>
   </g>
   <g id="patch_23">
    <path d="M 180.252902 307.584 
L 185.573911 307.584 
L 185.573911 223.578821 
L 180.252902 223.578821 
z
" clip-path="url(#p514d223646)" style="fill: #ff0000; opacity: 0.4; stroke: #000000; stroke-linejoin: miter"/>
   </g>
   <g id="patch_24">
    <path d="M 185.573911 307.584 
L 190.89492 307.584 
L 190.89492 225.789484 
L 185.573911 225.789484 
z
" clip-path="url(#p514d223646)" style="fill: #ff0000; opacity: 0.4; stroke: #000000; stroke-linejoin: miter"/>
   </g>
   <g id="patch_25">
    <path d="M 190.89492 307.584 
L 196.215928 307.584 
L 196.215928 205.89352 
L 190.89492 205.89352 
z
" clip-path="url(#p514d223646)" style="fill: #ff0000; opacity: 0.4; stroke: #000000; stroke-linejoin: miter"/>
   </g>
   <g id="patch_26">
    <path d="M 196.215928 307.584 
L 201.536937 307.584 
L 201.536937 192.629545 
L 196.215928 192.629545 
z
" clip-path="url(#p514d223646)" style="fill: #ff0000; opacity: 0.4; stroke: #000000; stroke-linejoin: miter"/>
   </g>
   <g id="patch_27">
    <path d="M 201.536937 307.584 
L 206.857946 307.584 
L 206.857946 205.89352 
L 201.536937 205.89352 
z
" clip-path="url(#p514d223646)" style="fill: #ff0000; opacity: 0.4; stroke: #000000; stroke-linejoin: miter"/>
   </g>
   <g id="patch_28">
    <path d="M 206.857946 307.584 
L 212.178955 307.584 
L 212.178955 192.629545 
L 206.857946 192.629545 
z
" clip-path="url(#p514d223646)" style="fill: #ff0000; opacity: 0.4; stroke: #000000; stroke-linejoin: miter"/>
   </g>
   <g id="patch_29">
    <path d="M 212.178955 307.584 
L 217.499963 307.584 
L 217.499963 192.629545 
L 212.178955 192.629545 
z
" clip-path="url(#p514d223646)" style="fill: #ff0000; opacity: 0.4; stroke: #000000; stroke-linejoin: miter"/>
   </g>
   <g id="patch_30">
    <path d="M 217.499963 307.584 
L 222.820972 307.584 
L 222.820972 188.208219 
L 217.499963 188.208219 
z
" clip-path="url(#p514d223646)" style="fill: #ff0000; opacity: 0.4; stroke: #000000; stroke-linejoin: miter"/>
   </g>
   <g id="patch_31">
    <path d="M 222.820972 307.584 
L 228.141981 307.584 
L 228.141981 190.418882 
L 222.820972 190.418882 
z
" clip-path="url(#p514d223646)" style="fill: #ff0000; opacity: 0.4; stroke: #000000; stroke-linejoin: miter"/>
   </g>
   <g id="patch_32">
    <path d="M 228.141981 307.584 
L 233.46299 307.584 
L 233.46299 179.365569 
L 228.141981 179.365569 
z
" clip-path="url(#p514d223646)" style="fill: #ff0000; opacity: 0.4; stroke: #000000; stroke-linejoin: miter"/>
   </g>
   <g id="patch_33">
    <path d="M 233.46299 307.584 
L 238.783998 307.584 
L 238.783998 177.154906 
L 233.46299 177.154906 
z
" clip-path="url(#p514d223646)" style="fill: #ff0000; opacity: 0.4; stroke: #000000; stroke-linejoin: miter"/>
   </g>
   <g id="patch_34">
    <path d="M 238.783998 307.584 
L 244.105007 307.584 
L 244.105007 170.522919 
L 238.783998 170.522919 
z
" clip-path="url(#p514d223646)" style="fill: #ff0000; opacity: 0.4; stroke: #000000; stroke-linejoin: miter"/>
   </g>
   <g id="patch_35">
    <path d="M 244.105007 307.584 
L 249.426016 307.584 
L 249.426016 170.522919 
L 244.105007 170.522919 
z
" clip-path="url(#p514d223646)" style="fill: #ff0000; opacity: 0.4; stroke: #000000; stroke-linejoin: miter"/>
   </g>
   <g id="patch_36">
    <path d="M 249.426016 307.584 
L 254.747024 307.584 
L 254.747024 141.784305 
L 249.426016 141.784305 
z
" clip-path="url(#p514d223646)" style="fill: #ff0000; opacity: 0.4; stroke: #000000; stroke-linejoin: miter"/>
   </g>
   <g id="patch_37">
    <path d="M 254.747024 307.584 
L 260.068033 307.584 
L 260.068033 181.576232 
L 254.747024 181.576232 
z
" clip-path="url(#p514d223646)" style="fill: #ff0000; opacity: 0.4; stroke: #000000; stroke-linejoin: miter"/>
   </g>
   <g id="patch_38">
    <path d="M 260.068033 307.584 
L 265.389042 307.584 
L 265.389042 181.576232 
L 260.068033 181.576232 
z
" clip-path="url(#p514d223646)" style="fill: #ff0000; opacity: 0.4; stroke: #000000; stroke-linejoin: miter"/>
   </g>
   <g id="patch_39">
    <path d="M 265.389042 307.584 
L 270.710051 307.584 
L 270.710051 214.736171 
L 265.389042 214.736171 
z
" clip-path="url(#p514d223646)" style="fill: #ff0000; opacity: 0.4; stroke: #000000; stroke-linejoin: miter"/>
   </g>
   <g id="patch_40">
    <path d="M 270.710051 307.584 
L 276.031059 307.584 
L 276.031059 190.418882 
L 270.710051 190.418882 
z
" clip-path="url(#p514d223646)" style="fill: #ff0000; opacity: 0.4; stroke: #000000; stroke-linejoin: miter"/>
   </g>
   <g id="patch_41">
    <path d="M 276.031059 307.584 
L 281.352068 307.584 
L 281.352068 228.000146 
L 276.031059 228.000146 
z
" clip-path="url(#p514d223646)" style="fill: #ff0000; opacity: 0.4; stroke: #000000; stroke-linejoin: miter"/>
   </g>
   <g id="patch_42">
    <path d="M 281.352068 307.584 
L 286.673077 307.584 
L 286.673077 225.789484 
L 281.352068 225.789484 
z
" clip-path="url(#p514d223646)" style="fill: #ff0000; opacity: 0.4; stroke: #000000; stroke-linejoin: miter"/>
   </g>
   <g id="patch_43">
    <path d="M 286.673077 307.584 
L 291.994086 307.584 
L 291.994086 232.421471 
L 286.673077 232.421471 
z
" clip-path="url(#p514d223646)" style="fill: #ff0000; opacity: 0.4; stroke: #000000; stroke-linejoin: miter"/>
   </g>
   <g id="patch_44">
    <path d="M 291.994086 307.584 
L 297.315094 307.584 
L 297.315094 212.525508 
L 291.994086 212.525508 
z
" clip-path="url(#p514d223646)" style="fill: #ff0000; opacity: 0.4; stroke: #000000; stroke-linejoin: miter"/>
   </g>
   <g id="patch_45">
    <path d="M 297.315094 307.584 
L 302.636103 307.584 
L 302.636103 245.685447 
L 297.315094 245.685447 
z
" clip-path="url(#p514d223646)" style="fill: #ff0000; opacity: 0.4; stroke: #000000; stroke-linejoin: miter"/>
   </g>
   <g id="patch_46">
    <path d="M 302.636103 307.584 
L 307.957112 307.584 
L 307.957112 252.317435 
L 302.636103 252.317435 
z
" clip-path="url(#p514d223646)" style="fill: #ff0000; opacity: 0.4; stroke: #000000; stroke-linejoin: miter"/>
   </g>
   <g id="patch_47">
    <path d="M 307.957112 307.584 
L 313.278121 307.584 
L 313.278121 254.528098 
L 307.957112 254.528098 
z
" clip-path="url(#p514d223646)" style="fill: #ff0000; opacity: 0.4; stroke: #000000; stroke-linejoin: miter"/>
   </g>
   <g id="patch_48">
    <path d="M 313.278121 307.584 
L 318.599129 307.584 
L 318.599129 267.792073 
L 313.278121 267.792073 
z
" clip-path="url(#p514d223646)" style="fill: #ff0000; opacity: 0.4; stroke: #000000; stroke-linejoin: miter"/>
   </g>
   <g id="patch_49">
    <path d="M 318.599129 307.584 
L 323.920138 307.584 
L 323.920138 287.688037 
L 318.599129 287.688037 
z
" clip-path="url(#p514d223646)" style="fill: #ff0000; opacity: 0.4; stroke: #000000; stroke-linejoin: miter"/>
   </g>
   <g id="patch_50">
    <path d="M 323.920138 307.584 
L 329.241147 307.584 
L 329.241147 274.424061 
L 323.920138 274.424061 
z
" clip-path="url(#p514d223646)" style="fill: #ff0000; opacity: 0.4; stroke: #000000; stroke-linejoin: miter"/>
   </g>
   <g id="patch_51">
    <path d="M 329.241147 307.584 
L 334.562156 307.584 
L 334.562156 296.530687 
L 329.241147 296.530687 
z
" clip-path="url(#p514d223646)" style="fill: #ff0000; opacity: 0.4; stroke: #000000; stroke-linejoin: miter"/>
   </g>
   <g id="patch_52">
    <path d="M 334.562156 307.584 
L 339.883164 307.584 
L 339.883164 276.634724 
L 334.562156 276.634724 
z
" clip-path="url(#p514d223646)" style="fill: #ff0000; opacity: 0.4; stroke: #000000; stroke-linejoin: miter"/>
   </g>
   <g id="patch_53">
    <path d="M 339.883164 307.584 
L 345.204173 307.584 
L 345.204173 292.109362 
L 339.883164 292.109362 
z
" clip-path="url(#p514d223646)" style="fill: #ff0000; opacity: 0.4; stroke: #000000; stroke-linejoin: miter"/>
   </g>
   <g id="patch_54">
    <path d="M 345.204173 307.584 
L 350.525182 307.584 
L 350.525182 300.952012 
L 345.204173 300.952012 
z
" clip-path="url(#p514d223646)" style="fill: #ff0000; opacity: 0.4; stroke: #000000; stroke-linejoin: miter"/>
   </g>
   <g id="patch_55">
    <path d="M 350.525182 307.584 
L 355.846191 307.584 
L 355.846191 292.109362 
L 350.525182 292.109362 
z
" clip-path="url(#p514d223646)" style="fill: #ff0000; opacity: 0.4; stroke: #000000; stroke-linejoin: miter"/>
   </g>
   <g id="patch_56">
    <path d="M 355.846191 307.584 
L 361.167199 307.584 
L 361.167199 305.373337 
L 355.846191 305.373337 
z
" clip-path="url(#p514d223646)" style="fill: #ff0000; opacity: 0.4; stroke: #000000; stroke-linejoin: miter"/>
   </g>
   <g id="patch_57">
    <path d="M 361.167199 307.584 
L 366.488208 307.584 
L 366.488208 303.162675 
L 361.167199 303.162675 
z
" clip-path="url(#p514d223646)" style="fill: #ff0000; opacity: 0.4; stroke: #000000; stroke-linejoin: miter"/>
   </g>
   <g id="patch_58">
    <path d="M 366.488208 307.584 
L 371.809217 307.584 
L 371.809217 303.162675 
L 366.488208 303.162675 
z
" clip-path="url(#p514d223646)" style="fill: #ff0000; opacity: 0.4; stroke: #000000; stroke-linejoin: miter"/>
   </g>
   <g id="patch_59">
    <path d="M 371.809217 307.584 
L 377.130226 307.584 
L 377.130226 305.373337 
L 371.809217 305.373337 
z
" clip-path="url(#p514d223646)" style="fill: #ff0000; opacity: 0.4; stroke: #000000; stroke-linejoin: miter"/>
   </g>
   <g id="patch_60">
    <path d="M 377.130226 307.584 
L 382.451234 307.584 
L 382.451234 305.373337 
L 377.130226 305.373337 
z
" clip-path="url(#p514d223646)" style="fill: #ff0000; opacity: 0.4; stroke: #000000; stroke-linejoin: miter"/>
   </g>
   <g id="patch_61">
    <path d="M 382.451234 307.584 
L 387.772243 307.584 
L 387.772243 307.584 
L 382.451234 307.584 
z
" clip-path="url(#p514d223646)" style="fill: #ff0000; opacity: 0.4; stroke: #000000; stroke-linejoin: miter"/>
   </g>
   <g id="patch_62">
    <path d="M 387.772243 307.584 
L 393.093252 307.584 
L 393.093252 305.373337 
L 387.772243 305.373337 
z
" clip-path="url(#p514d223646)" style="fill: #ff0000; opacity: 0.4; stroke: #000000; stroke-linejoin: miter"/>
   </g>
   <g id="patch_63">
    <path d="M 164.91297 307.584 
L 168.805875 307.584 
L 168.805875 301.824 
L 164.91297 301.824 
z
" clip-path="url(#p514d223646)" style="fill: #0000ff; opacity: 0.4; stroke: #000000; stroke-linejoin: miter"/>
   </g>
   <g id="patch_64">
    <path d="M 168.805875 307.584 
L 172.69878 307.584 
L 172.69878 307.584 
L 168.805875 307.584 
z
" clip-path="url(#p514d223646)" style="fill: #0000ff; opacity: 0.4; stroke: #000000; stroke-linejoin: miter"/>
   </g>
   <g id="patch_65">
    <path d="M 172.69878 307.584 
L 176.591685 307.584 
L 176.591685 307.584 
L 172.69878 307.584 
z
" clip-path="url(#p514d223646)" style="fill: #0000ff; opacity: 0.4; stroke: #000000; stroke-linejoin: miter"/>
   </g>
   <g id="patch_66">
    <path d="M 176.591685 307.584 
L 180.48459 307.584 
L 180.48459 301.824 
L 176.591685 301.824 
z
" clip-path="url(#p514d223646)" style="fill: #0000ff; opacity: 0.4; stroke: #000000; stroke-linejoin: miter"/>
   </g>
   <g id="patch_67">
    <path d="M 180.48459 307.584 
L 184.377495 307.584 
L 184.377495 301.824 
L 180.48459 301.824 
z
" clip-path="url(#p514d223646)" style="fill: #0000ff; opacity: 0.4; stroke: #000000; stroke-linejoin: miter"/>
   </g>
   <g id="patch_68">
    <path d="M 184.377495 307.584 
L 188.2704 307.584 
L 188.2704 307.584 
L 184.377495 307.584 
z
" clip-path="url(#p514d223646)" style="fill: #0000ff; opacity: 0.4; stroke: #000000; stroke-linejoin: miter"/>
   </g>
   <g id="patch_69">
    <path d="M 188.2704 307.584 
L 192.163306 307.584 
L 192.163306 307.584 
L 188.2704 307.584 
z
" clip-path="url(#p514d223646)" style="fill: #0000ff; opacity: 0.4; stroke: #000000; stroke-linejoin: miter"/>
   </g>
   <g id="patch_70">
    <path d="M 192.163306 307.584 
L 196.056211 307.584 
L 196.056211 301.824 
L 192.163306 301.824 
z
" clip-path="url(#p514d223646)" style="fill: #0000ff; opacity: 0.4; stroke: #000000; stroke-linejoin: miter"/>
   </g>
   <g id="patch_71">
    <path d="M 196.056211 307.584 
L 199.949116 307.584 
L 199.949116 301.824 
L 196.056211 301.824 
z
" clip-path="url(#p514d223646)" style="fill: #0000ff; opacity: 0.4; stroke: #000000; stroke-linejoin: miter"/>
   </g>
   <g id="patch_72">
    <path d="M 199.949116 307.584 
L 203.842021 307.584 
L 203.842021 284.544 
L 199.949116 284.544 
z
" clip-path="url(#p514d223646)" style="fill: #0000ff; opacity: 0.4; stroke: #000000; stroke-linejoin: miter"/>
   </g>
   <g id="patch_73">
    <path d="M 203.842021 307.584 
L 207.734926 307.584 
L 207.734926 273.024 
L 203.842021 273.024 
z
" clip-path="url(#p514d223646)" style="fill: #0000ff; opacity: 0.4; stroke: #000000; stroke-linejoin: miter"/>
   </g>
   <g id="patch_74">
    <path d="M 207.734926 307.584 
L 211.627831 307.584 
L 211.627831 301.824 
L 207.734926 301.824 
z
" clip-path="url(#p514d223646)" style="fill: #0000ff; opacity: 0.4; stroke: #000000; stroke-linejoin: miter"/>
   </g>
   <g id="patch_75">
    <path d="M 211.627831 307.584 
L 215.520736 307.584 
L 215.520736 249.984 
L 211.627831 249.984 
z
" clip-path="url(#p514d223646)" style="fill: #0000ff; opacity: 0.4; stroke: #000000; stroke-linejoin: miter"/>
   </g>
   <g id="patch_76">
    <path d="M 215.520736 307.584 
L 219.413641 307.584 
L 219.413641 249.984 
L 215.520736 249.984 
z
" clip-path="url(#p514d223646)" style="fill: #0000ff; opacity: 0.4; stroke: #000000; stroke-linejoin: miter"/>
   </g>
   <g id="patch_77">
    <path d="M 219.413641 307.584 
L 223.306546 307.584 
L 223.306546 278.784 
L 219.413641 278.784 
z
" clip-path="url(#p514d223646)" style="fill: #0000ff; opacity: 0.4; stroke: #000000; stroke-linejoin: miter"/>
   </g>
   <g id="patch_78">
    <path d="M 223.306546 307.584 
L 227.199451 307.584 
L 227.199451 261.504 
L 223.306546 261.504 
z
" clip-path="url(#p514d223646)" style="fill: #0000ff; opacity: 0.4; stroke: #000000; stroke-linejoin: miter"/>
   </g>
   <g id="patch_79">
    <path d="M 227.199451 307.584 
L 231.092356 307.584 
L 231.092356 249.984 
L 227.199451 249.984 
z
" clip-path="url(#p514d223646)" style="fill: #0000ff; opacity: 0.4; stroke: #000000; stroke-linejoin: miter"/>
   </g>
   <g id="patch_80">
    <path d="M 231.092356 307.584 
L 234.985261 307.584 
L 234.985261 249.984 
L 231.092356 249.984 
z
" clip-path="url(#p514d223646)" style="fill: #0000ff; opacity: 0.4; stroke: #000000; stroke-linejoin: miter"/>
   </g>
   <g id="patch_81">
    <path d="M 234.985261 307.584 
L 238.878166 307.584 
L 238.878166 192.384 
L 234.985261 192.384 
z
" clip-path="url(#p514d223646)" style="fill: #0000ff; opacity: 0.4; stroke: #000000; stroke-linejoin: miter"/>
   </g>
   <g id="patch_82">
    <path d="M 238.878166 307.584 
L 242.771071 307.584 
L 242.771071 192.384 
L 238.878166 192.384 
z
" clip-path="url(#p514d223646)" style="fill: #0000ff; opacity: 0.4; stroke: #000000; stroke-linejoin: miter"/>
   </g>
   <g id="patch_83">
    <path d="M 242.771071 307.584 
L 246.663976 307.584 
L 246.663976 186.624 
L 242.771071 186.624 
z
" clip-path="url(#p514d223646)" style="fill: #0000ff; opacity: 0.4; stroke: #000000; stroke-linejoin: miter"/>
   </g>
   <g id="patch_84">
    <path d="M 246.663976 307.584 
L 250.556881 307.584 
L 250.556881 238.464 
L 246.663976 238.464 
z
" clip-path="url(#p514d223646)" style="fill: #0000ff; opacity: 0.4; stroke: #000000; stroke-linejoin: miter"/>
   </g>
   <g id="patch_85">
    <path d="M 250.556881 307.584 
L 254.449786 307.584 
L 254.449786 152.064 
L 250.556881 152.064 
z
" clip-path="url(#p514d223646)" style="fill: #0000ff; opacity: 0.4; stroke: #000000; stroke-linejoin: miter"/>
   </g>
   <g id="patch_86">
    <path d="M 254.449786 307.584 
L 258.342691 307.584 
L 258.342691 180.864 
L 254.449786 180.864 
z
" clip-path="url(#p514d223646)" style="fill: #0000ff; opacity: 0.4; stroke: #000000; stroke-linejoin: miter"/>
   </g>
   <g id="patch_87">
    <path d="M 258.342691 307.584 
L 262.235596 307.584 
L 262.235596 146.304 
L 258.342691 146.304 
z
" clip-path="url(#p514d223646)" style="fill: #0000ff; opacity: 0.4; stroke: #000000; stroke-linejoin: miter"/>
   </g>
   <g id="patch_88">
    <path d="M 262.235596 307.584 
L 266.128501 307.584 
L 266.128501 215.424 
L 262.235596 215.424 
z
" clip-path="url(#p514d223646)" style="fill: #0000ff; opacity: 0.4; stroke: #000000; stroke-linejoin: miter"/>
   </g>
   <g id="patch_89">
    <path d="M 266.128501 307.584 
L 270.021406 307.584 
L 270.021406 94.464 
L 266.128501 94.464 
z
" clip-path="url(#p514d223646)" style="fill: #0000ff; opacity: 0.4; stroke: #000000; stroke-linejoin: miter"/>
   </g>
   <g id="patch_90">
    <path d="M 270.021406 307.584 
L 273.914311 307.584 
L 273.914311 123.264 
L 270.021406 123.264 
z
" clip-path="url(#p514d223646)" style="fill: #0000ff; opacity: 0.4; stroke: #000000; stroke-linejoin: miter"/>
   </g>
   <g id="patch_91">
    <path d="M 273.914311 307.584 
L 277.807216 307.584 
L 277.807216 163.584 
L 273.914311 163.584 
z
" clip-path="url(#p514d223646)" style="fill: #0000ff; opacity: 0.4; stroke: #000000; stroke-linejoin: miter"/>
   </g>
   <g id="patch_92">
    <path d="M 277.807216 307.584 
L 281.700121 307.584 
L 281.700121 82.944 
L 277.807216 82.944 
z
" clip-path="url(#p514d223646)" style="fill: #0000ff; opacity: 0.4; stroke: #000000; stroke-linejoin: miter"/>
   </g>
   <g id="patch_93">
    <path d="M 281.700121 307.584 
L 285.593027 307.584 
L 285.593027 100.224 
L 281.700121 100.224 
z
" clip-path="url(#p514d223646)" style="fill: #0000ff; opacity: 0.4; stroke: #000000; stroke-linejoin: miter"/>
   </g>
   <g id="patch_94">
    <path d="M 285.593027 307.584 
L 289.485932 307.584 
L 289.485932 54.144 
L 285.593027 54.144 
z
" clip-path="url(#p514d223646)" style="fill: #0000ff; opacity: 0.4; stroke: #000000; stroke-linejoin: miter"/>
   </g>
   <g id="patch_95">
    <path d="M 289.485932 307.584 
L 293.378837 307.584 
L 293.378837 146.304 
L 289.485932 146.304 
z
" clip-path="url(#p514d223646)" style="fill: #0000ff; opacity: 0.4; stroke: #000000; stroke-linejoin: miter"/>
   </g>
   <g id="patch_96">
    <path d="M 293.378837 307.584 
L 297.271742 307.584 
L 297.271742 175.104 
L 293.378837 175.104 
z
" clip-path="url(#p514d223646)" style="fill: #0000ff; opacity: 0.4; stroke: #000000; stroke-linejoin: miter"/>
   </g>
   <g id="patch_97">
    <path d="M 297.271742 307.584 
L 301.164647 307.584 
L 301.164647 82.944 
L 297.271742 82.944 
z
" clip-path="url(#p514d223646)" style="fill: #0000ff; opacity: 0.4; stroke: #000000; stroke-linejoin: miter"/>
   </g>
   <g id="patch_98">
    <path d="M 301.164647 307.584 
L 305.057552 307.584 
L 305.057552 146.304 
L 301.164647 146.304 
z
" clip-path="url(#p514d223646)" style="fill: #0000ff; opacity: 0.4; stroke: #000000; stroke-linejoin: miter"/>
   </g>
   <g id="patch_99">
    <path d="M 305.057552 307.584 
L 308.950457 307.584 
L 308.950457 169.344 
L 305.057552 169.344 
z
" clip-path="url(#p514d223646)" style="fill: #0000ff; opacity: 0.4; stroke: #000000; stroke-linejoin: miter"/>
   </g>
   <g id="patch_100">
    <path d="M 308.950457 307.584 
L 312.843362 307.584 
L 312.843362 192.384 
L 308.950457 192.384 
z
" clip-path="url(#p514d223646)" style="fill: #0000ff; opacity: 0.4; stroke: #000000; stroke-linejoin: miter"/>
   </g>
   <g id="patch_101">
    <path d="M 312.843362 307.584 
L 316.736267 307.584 
L 316.736267 192.384 
L 312.843362 192.384 
z
" clip-path="url(#p514d223646)" style="fill: #0000ff; opacity: 0.4; stroke: #000000; stroke-linejoin: miter"/>
   </g>
   <g id="patch_102">
    <path d="M 316.736267 307.584 
L 320.629172 307.584 
L 320.629172 175.104 
L 316.736267 175.104 
z
" clip-path="url(#p514d223646)" style="fill: #0000ff; opacity: 0.4; stroke: #000000; stroke-linejoin: miter"/>
   </g>
   <g id="patch_103">
    <path d="M 320.629172 307.584 
L 324.522077 307.584 
L 324.522077 192.384 
L 320.629172 192.384 
z
" clip-path="url(#p514d223646)" style="fill: #0000ff; opacity: 0.4; stroke: #000000; stroke-linejoin: miter"/>
   </g>
   <g id="patch_104">
    <path d="M 324.522077 307.584 
L 328.414982 307.584 
L 328.414982 192.384 
L 324.522077 192.384 
z
" clip-path="url(#p514d223646)" style="fill: #0000ff; opacity: 0.4; stroke: #000000; stroke-linejoin: miter"/>
   </g>
   <g id="patch_105">
    <path d="M 328.414982 307.584 
L 332.307887 307.584 
L 332.307887 186.624 
L 328.414982 186.624 
z
" clip-path="url(#p514d223646)" style="fill: #0000ff; opacity: 0.4; stroke: #000000; stroke-linejoin: miter"/>
   </g>
   <g id="patch_106">
    <path d="M 332.307887 307.584 
L 336.200792 307.584 
L 336.200792 249.984 
L 332.307887 249.984 
z
" clip-path="url(#p514d223646)" style="fill: #0000ff; opacity: 0.4; stroke: #000000; stroke-linejoin: miter"/>
   </g>
   <g id="patch_107">
    <path d="M 336.200792 307.584 
L 340.093697 307.584 
L 340.093697 244.224 
L 336.200792 244.224 
z
" clip-path="url(#p514d223646)" style="fill: #0000ff; opacity: 0.4; stroke: #000000; stroke-linejoin: miter"/>
   </g>
   <g id="patch_108">
    <path d="M 340.093697 307.584 
L 343.986602 307.584 
L 343.986602 267.264 
L 340.093697 267.264 
z
" clip-path="url(#p514d223646)" style="fill: #0000ff; opacity: 0.4; stroke: #000000; stroke-linejoin: miter"/>
   </g>
   <g id="patch_109">
    <path d="M 343.986602 307.584 
L 347.879507 307.584 
L 347.879507 209.664 
L 343.986602 209.664 
z
" clip-path="url(#p514d223646)" style="fill: #0000ff; opacity: 0.4; stroke: #000000; stroke-linejoin: miter"/>
   </g>
   <g id="patch_110">
    <path d="M 347.879507 307.584 
L 351.772412 307.584 
L 351.772412 244.224 
L 347.879507 244.224 
z
" clip-path="url(#p514d223646)" style="fill: #0000ff; opacity: 0.4; stroke: #000000; stroke-linejoin: miter"/>
   </g>
   <g id="patch_111">
    <path d="M 351.772412 307.584 
L 355.665317 307.584 
L 355.665317 273.024 
L 351.772412 273.024 
z
" clip-path="url(#p514d223646)" style="fill: #0000ff; opacity: 0.4; stroke: #000000; stroke-linejoin: miter"/>
   </g>
   <g id="patch_112">
    <path d="M 355.665317 307.584 
L 359.558222 307.584 
L 359.558222 273.024 
L 355.665317 273.024 
z
" clip-path="url(#p514d223646)" style="fill: #0000ff; opacity: 0.4; stroke: #000000; stroke-linejoin: miter"/>
   </g>
   <g id="patch_113">
    <path d="M 359.558222 307.584 
L 363.451127 307.584 
L 363.451127 278.784 
L 359.558222 278.784 
z
" clip-path="url(#p514d223646)" style="fill: #0000ff; opacity: 0.4; stroke: #000000; stroke-linejoin: miter"/>
   </g>
   <g id="patch_114">
    <path d="M 363.451127 307.584 
L 367.344032 307.584 
L 367.344032 296.064 
L 363.451127 296.064 
z
" clip-path="url(#p514d223646)" style="fill: #0000ff; opacity: 0.4; stroke: #000000; stroke-linejoin: miter"/>
   </g>
   <g id="patch_115">
    <path d="M 367.344032 307.584 
L 371.236937 307.584 
L 371.236937 301.824 
L 367.344032 301.824 
z
" clip-path="url(#p514d223646)" style="fill: #0000ff; opacity: 0.4; stroke: #000000; stroke-linejoin: miter"/>
   </g>
   <g id="patch_116">
    <path d="M 371.236937 307.584 
L 375.129842 307.584 
L 375.129842 301.824 
L 371.236937 301.824 
z
" clip-path="url(#p514d223646)" style="fill: #0000ff; opacity: 0.4; stroke: #000000; stroke-linejoin: miter"/>
   </g>
   <g id="patch_117">
    <path d="M 375.129842 307.584 
L 379.022748 307.584 
L 379.022748 296.064 
L 375.129842 296.064 
z
" clip-path="url(#p514d223646)" style="fill: #0000ff; opacity: 0.4; stroke: #000000; stroke-linejoin: miter"/>
   </g>
   <g id="patch_118">
    <path d="M 379.022748 307.584 
L 382.915653 307.584 
L 382.915653 307.584 
L 379.022748 307.584 
z
" clip-path="url(#p514d223646)" style="fill: #0000ff; opacity: 0.4; stroke: #000000; stroke-linejoin: miter"/>
   </g>
   <g id="patch_119">
    <path d="M 382.915653 307.584 
L 386.808558 307.584 
L 386.808558 290.304 
L 382.915653 290.304 
z
" clip-path="url(#p514d223646)" style="fill: #0000ff; opacity: 0.4; stroke: #000000; stroke-linejoin: miter"/>
   </g>
   <g id="patch_120">
    <path d="M 386.808558 307.584 
L 390.701463 307.584 
L 390.701463 307.584 
L 386.808558 307.584 
z
" clip-path="url(#p514d223646)" style="fill: #0000ff; opacity: 0.4; stroke: #000000; stroke-linejoin: miter"/>
   </g>
   <g id="patch_121">
    <path d="M 390.701463 307.584 
L 394.594368 307.584 
L 394.594368 301.824 
L 390.701463 301.824 
z
" clip-path="url(#p514d223646)" style="fill: #0000ff; opacity: 0.4; stroke: #000000; stroke-linejoin: miter"/>
   </g>
   <g id="patch_122">
    <path d="M 394.594368 307.584 
L 398.487273 307.584 
L 398.487273 290.304 
L 394.594368 290.304 
z
" clip-path="url(#p514d223646)" style="fill: #0000ff; opacity: 0.4; stroke: #000000; stroke-linejoin: miter"/>
   </g>
   <g id="matplotlib.axis_1">
    <g id="xtick_1">
     <g id="line2d_1">
      <defs>
       <path id="m6457461245" d="M 0 0 
L 0 3.5 
" style="stroke: #000000; stroke-width: 0.8"/>
      </defs>
      <g>
       <use xlink:href="#m6457461245" x="71.885729" y="307.584" style="stroke: #000000; stroke-width: 0.8"/>
      </g>
     </g>
     <g id="text_1">
      <!-- −15 -->
      <g transform="translate(61.333385 322.182437) scale(0.1 -0.1)">
       <defs>
        <path id="DejaVuSans-2212" d="M 678 2272 
L 4684 2272 
L 4684 1741 
L 678 1741 
L 678 2272 
z
" transform="scale(0.015625)"/>
        <path id="DejaVuSans-31" d="M 794 531 
L 1825 531 
L 1825 4091 
L 703 3866 
L 703 4441 
L 1819 4666 
L 2450 4666 
L 2450 531 
L 3481 531 
L 3481 0 
L 794 0 
L 794 531 
z
" transform="scale(0.015625)"/>
        <path id="DejaVuSans-35" d="M 691 4666 
L 3169 4666 
L 3169 4134 
L 1269 4134 
L 1269 2991 
Q 1406 3038 1543 3061 
Q 1681 3084 1819 3084 
Q 2600 3084 3056 2656 
Q 3513 2228 3513 1497 
Q 3513 744 3044 326 
Q 2575 -91 1722 -91 
Q 1428 -91 1123 -41 
Q 819 9 494 109 
L 494 744 
Q 775 591 1075 516 
Q 1375 441 1709 441 
Q 2250 441 2565 725 
Q 2881 1009 2881 1497 
Q 2881 1984 2565 2268 
Q 2250 2553 1709 2553 
Q 1456 2553 1204 2497 
Q 953 2441 691 2322 
L 691 4666 
z
" transform="scale(0.015625)"/>
       </defs>
       <use xlink:href="#DejaVuSans-2212"/>
       <use xlink:href="#DejaVuSans-31" x="83.789062"/>
       <use xlink:href="#DejaVuSans-35" x="147.412109"/>
      </g>
     </g>
    </g>
    <g id="xtick_2">
     <g id="line2d_2">
      <g>
       <use xlink:href="#m6457461245" x="117.979883" y="307.584" style="stroke: #000000; stroke-width: 0.8"/>
      </g>
     </g>
     <g id="text_2">
      <!-- −10 -->
      <g transform="translate(107.42754 322.182437) scale(0.1 -0.1)">
       <defs>
        <path id="DejaVuSans-30" d="M 2034 4250 
Q 1547 4250 1301 3770 
Q 1056 3291 1056 2328 
Q 1056 1369 1301 889 
Q 1547 409 2034 409 
Q 2525 409 2770 889 
Q 3016 1369 3016 2328 
Q 3016 3291 2770 3770 
Q 2525 4250 2034 4250 
z
M 2034 4750 
Q 2819 4750 3233 4129 
Q 3647 3509 3647 2328 
Q 3647 1150 3233 529 
Q 2819 -91 2034 -91 
Q 1250 -91 836 529 
Q 422 1150 422 2328 
Q 422 3509 836 4129 
Q 1250 4750 2034 4750 
z
" transform="scale(0.015625)"/>
       </defs>
       <use xlink:href="#DejaVuSans-2212"/>
       <use xlink:href="#DejaVuSans-31" x="83.789062"/>
       <use xlink:href="#DejaVuSans-30" x="147.412109"/>
      </g>
     </g>
    </g>
    <g id="xtick_3">
     <g id="line2d_3">
      <g>
       <use xlink:href="#m6457461245" x="164.074038" y="307.584" style="stroke: #000000; stroke-width: 0.8"/>
      </g>
     </g>
     <g id="text_3">
      <!-- −5 -->
      <g transform="translate(156.702944 322.182437) scale(0.1 -0.1)">
       <use xlink:href="#DejaVuSans-2212"/>
       <use xlink:href="#DejaVuSans-35" x="83.789062"/>
      </g>
     </g>
    </g>
    <g id="xtick_4">
     <g id="line2d_4">
      <g>
       <use xlink:href="#m6457461245" x="210.168193" y="307.584" style="stroke: #000000; stroke-width: 0.8"/>
      </g>
     </g>
     <g id="text_4">
      <!-- 0 -->
      <g transform="translate(206.986943 322.182437) scale(0.1 -0.1)">
       <use xlink:href="#DejaVuSans-30"/>
      </g>
     </g>
    </g>
    <g id="xtick_5">
     <g id="line2d_5">
      <g>
       <use xlink:href="#m6457461245" x="256.262348" y="307.584" style="stroke: #000000; stroke-width: 0.8"/>
      </g>
     </g>
     <g id="text_5">
      <!-- 5 -->
      <g transform="translate(253.081098 322.182437) scale(0.1 -0.1)">
       <use xlink:href="#DejaVuSans-35"/>
      </g>
     </g>
    </g>
    <g id="xtick_6">
     <g id="line2d_6">
      <g>
       <use xlink:href="#m6457461245" x="302.356502" y="307.584" style="stroke: #000000; stroke-width: 0.8"/>
      </g>
     </g>
     <g id="text_6">
      <!-- 10 -->
      <g transform="translate(295.994002 322.182437) scale(0.1 -0.1)">
       <use xlink:href="#DejaVuSans-31"/>
       <use xlink:href="#DejaVuSans-30" x="63.623047"/>
      </g>
     </g>
    </g>
    <g id="xtick_7">
     <g id="line2d_7">
      <g>
       <use xlink:href="#m6457461245" x="348.450657" y="307.584" style="stroke: #000000; stroke-width: 0.8"/>
      </g>
     </g>
     <g id="text_7">
      <!-- 15 -->
      <g transform="translate(342.088157 322.182437) scale(0.1 -0.1)">
       <use xlink:href="#DejaVuSans-31"/>
       <use xlink:href="#DejaVuSans-35" x="63.623047"/>
      </g>
     </g>
    </g>
    <g id="xtick_8">
     <g id="line2d_8">
      <g>
       <use xlink:href="#m6457461245" x="394.544812" y="307.584" style="stroke: #000000; stroke-width: 0.8"/>
      </g>
     </g>
     <g id="text_8">
      <!-- 20 -->
      <g transform="translate(388.182312 322.182437) scale(0.1 -0.1)">
       <defs>
        <path id="DejaVuSans-32" d="M 1228 531 
L 3431 531 
L 3431 0 
L 469 0 
L 469 531 
Q 828 903 1448 1529 
Q 2069 2156 2228 2338 
Q 2531 2678 2651 2914 
Q 2772 3150 2772 3378 
Q 2772 3750 2511 3984 
Q 2250 4219 1831 4219 
Q 1534 4219 1204 4116 
Q 875 4013 500 3803 
L 500 4441 
Q 881 4594 1212 4672 
Q 1544 4750 1819 4750 
Q 2544 4750 2975 4387 
Q 3406 4025 3406 3419 
Q 3406 3131 3298 2873 
Q 3191 2616 2906 2266 
Q 2828 2175 2409 1742 
Q 1991 1309 1228 531 
z
" transform="scale(0.015625)"/>
       </defs>
       <use xlink:href="#DejaVuSans-32"/>
       <use xlink:href="#DejaVuSans-30" x="63.623047"/>
      </g>
     </g>
    </g>
   </g>
   <g id="matplotlib.axis_2">
    <g id="ytick_1">
     <g id="line2d_9">
      <defs>
       <path id="mff97984050" d="M 0 0 
L -3.5 0 
" style="stroke: #000000; stroke-width: 0.8"/>
      </defs>
      <g>
       <use xlink:href="#mff97984050" x="57.6" y="307.584" style="stroke: #000000; stroke-width: 0.8"/>
      </g>
     </g>
     <g id="text_9">
      <!-- 0.00 -->
      <g transform="translate(28.334375 311.383219) scale(0.1 -0.1)">
       <defs>
        <path id="DejaVuSans-2e" d="M 684 794 
L 1344 794 
L 1344 0 
L 684 0 
L 684 794 
z
" transform="scale(0.015625)"/>
       </defs>
       <use xlink:href="#DejaVuSans-30"/>
       <use xlink:href="#DejaVuSans-2e" x="63.623047"/>
       <use xlink:href="#DejaVuSans-30" x="95.410156"/>
       <use xlink:href="#DejaVuSans-30" x="159.033203"/>
      </g>
     </g>
    </g>
    <g id="ytick_2">
     <g id="line2d_10">
      <g>
       <use xlink:href="#mff97984050" x="57.6" y="268.666904" style="stroke: #000000; stroke-width: 0.8"/>
      </g>
     </g>
     <g id="text_10">
      <!-- 0.02 -->
      <g transform="translate(28.334375 272.466123) scale(0.1 -0.1)">
       <use xlink:href="#DejaVuSans-30"/>
       <use xlink:href="#DejaVuSans-2e" x="63.623047"/>
       <use xlink:href="#DejaVuSans-30" x="95.410156"/>
       <use xlink:href="#DejaVuSans-32" x="159.033203"/>
      </g>
     </g>
    </g>
    <g id="ytick_3">
     <g id="line2d_11">
      <g>
       <use xlink:href="#mff97984050" x="57.6" y="229.749808" style="stroke: #000000; stroke-width: 0.8"/>
      </g>
     </g>
     <g id="text_11">
      <!-- 0.04 -->
      <g transform="translate(28.334375 233.549027) scale(0.1 -0.1)">
       <defs>
        <path id="DejaVuSans-34" d="M 2419 4116 
L 825 1625 
L 2419 1625 
L 2419 4116 
z
M 2253 4666 
L 3047 4666 
L 3047 1625 
L 3713 1625 
L 3713 1100 
L 3047 1100 
L 3047 0 
L 2419 0 
L 2419 1100 
L 313 1100 
L 313 1709 
L 2253 4666 
z
" transform="scale(0.015625)"/>
       </defs>
       <use xlink:href="#DejaVuSans-30"/>
       <use xlink:href="#DejaVuSans-2e" x="63.623047"/>
       <use xlink:href="#DejaVuSans-30" x="95.410156"/>
       <use xlink:href="#DejaVuSans-34" x="159.033203"/>
      </g>
     </g>
    </g>
    <g id="ytick_4">
     <g id="line2d_12">
      <g>
       <use xlink:href="#mff97984050" x="57.6" y="190.832712" style="stroke: #000000; stroke-width: 0.8"/>
      </g>
     </g>
     <g id="text_12">
      <!-- 0.06 -->
      <g transform="translate(28.334375 194.631931) scale(0.1 -0.1)">
       <defs>
        <path id="DejaVuSans-36" d="M 2113 2584 
Q 1688 2584 1439 2293 
Q 1191 2003 1191 1497 
Q 1191 994 1439 701 
Q 1688 409 2113 409 
Q 2538 409 2786 701 
Q 3034 994 3034 1497 
Q 3034 2003 2786 2293 
Q 2538 2584 2113 2584 
z
M 3366 4563 
L 3366 3988 
Q 3128 4100 2886 4159 
Q 2644 4219 2406 4219 
Q 1781 4219 1451 3797 
Q 1122 3375 1075 2522 
Q 1259 2794 1537 2939 
Q 1816 3084 2150 3084 
Q 2853 3084 3261 2657 
Q 3669 2231 3669 1497 
Q 3669 778 3244 343 
Q 2819 -91 2113 -91 
Q 1303 -91 875 529 
Q 447 1150 447 2328 
Q 447 3434 972 4092 
Q 1497 4750 2381 4750 
Q 2619 4750 2861 4703 
Q 3103 4656 3366 4563 
z
" transform="scale(0.015625)"/>
       </defs>
       <use xlink:href="#DejaVuSans-30"/>
       <use xlink:href="#DejaVuSans-2e" x="63.623047"/>
       <use xlink:href="#DejaVuSans-30" x="95.410156"/>
       <use xlink:href="#DejaVuSans-36" x="159.033203"/>
      </g>
     </g>
    </g>
    <g id="ytick_5">
     <g id="line2d_13">
      <g>
       <use xlink:href="#mff97984050" x="57.6" y="151.915616" style="stroke: #000000; stroke-width: 0.8"/>
      </g>
     </g>
     <g id="text_13">
      <!-- 0.08 -->
      <g transform="translate(28.334375 155.714835) scale(0.1 -0.1)">
       <defs>
        <path id="DejaVuSans-38" d="M 2034 2216 
Q 1584 2216 1326 1975 
Q 1069 1734 1069 1313 
Q 1069 891 1326 650 
Q 1584 409 2034 409 
Q 2484 409 2743 651 
Q 3003 894 3003 1313 
Q 3003 1734 2745 1975 
Q 2488 2216 2034 2216 
z
M 1403 2484 
Q 997 2584 770 2862 
Q 544 3141 544 3541 
Q 544 4100 942 4425 
Q 1341 4750 2034 4750 
Q 2731 4750 3128 4425 
Q 3525 4100 3525 3541 
Q 3525 3141 3298 2862 
Q 3072 2584 2669 2484 
Q 3125 2378 3379 2068 
Q 3634 1759 3634 1313 
Q 3634 634 3220 271 
Q 2806 -91 2034 -91 
Q 1263 -91 848 271 
Q 434 634 434 1313 
Q 434 1759 690 2068 
Q 947 2378 1403 2484 
z
M 1172 3481 
Q 1172 3119 1398 2916 
Q 1625 2713 2034 2713 
Q 2441 2713 2670 2916 
Q 2900 3119 2900 3481 
Q 2900 3844 2670 4047 
Q 2441 4250 2034 4250 
Q 1625 4250 1398 4047 
Q 1172 3844 1172 3481 
z
" transform="scale(0.015625)"/>
       </defs>
       <use xlink:href="#DejaVuSans-30"/>
       <use xlink:href="#DejaVuSans-2e" x="63.623047"/>
       <use xlink:href="#DejaVuSans-30" x="95.410156"/>
       <use xlink:href="#DejaVuSans-38" x="159.033203"/>
      </g>
     </g>
    </g>
    <g id="ytick_6">
     <g id="line2d_14">
      <g>
       <use xlink:href="#mff97984050" x="57.6" y="112.99852" style="stroke: #000000; stroke-width: 0.8"/>
      </g>
     </g>
     <g id="text_14">
      <!-- 0.10 -->
      <g transform="translate(28.334375 116.797739) scale(0.1 -0.1)">
       <use xlink:href="#DejaVuSans-30"/>
       <use xlink:href="#DejaVuSans-2e" x="63.623047"/>
       <use xlink:href="#DejaVuSans-31" x="95.410156"/>
       <use xlink:href="#DejaVuSans-30" x="159.033203"/>
      </g>
     </g>
    </g>
    <g id="ytick_7">
     <g id="line2d_15">
      <g>
       <use xlink:href="#mff97984050" x="57.6" y="74.081424" style="stroke: #000000; stroke-width: 0.8"/>
      </g>
     </g>
     <g id="text_15">
      <!-- 0.12 -->
      <g transform="translate(28.334375 77.880643) scale(0.1 -0.1)">
       <use xlink:href="#DejaVuSans-30"/>
       <use xlink:href="#DejaVuSans-2e" x="63.623047"/>
       <use xlink:href="#DejaVuSans-31" x="95.410156"/>
       <use xlink:href="#DejaVuSans-32" x="159.033203"/>
      </g>
     </g>
    </g>
   </g>
   <g id="patch_123">
    <path d="M 57.6 307.584 
L 57.6 41.472 
" style="fill: none; stroke: #000000; stroke-width: 0.8; stroke-linejoin: miter; stroke-linecap: square"/>
   </g>
   <g id="patch_124">
    <path d="M 414.72 307.584 
L 414.72 41.472 
" style="fill: none; stroke: #000000; stroke-width: 0.8; stroke-linejoin: miter; stroke-linecap: square"/>
   </g>
   <g id="patch_125">
    <path d="M 57.6 307.584 
L 414.72 307.584 
" style="fill: none; stroke: #000000; stroke-width: 0.8; stroke-linejoin: miter; stroke-linecap: square"/>
   </g>
   <g id="patch_126">
    <path d="M 57.6 41.472 
L 414.72 41.472 
" style="fill: none; stroke: #000000; stroke-width: 0.8; stroke-linejoin: miter; stroke-linecap: square"/>
   </g>
   <g id="text_16">
    <!-- feature_2 -->
    <g transform="translate(207.683437 35.472) scale(0.12 -0.12)">
     <defs>
      <path id="DejaVuSans-66" d="M 2375 4863 
L 2375 4384 
L 1825 4384 
Q 1516 4384 1395 4259 
Q 1275 4134 1275 3809 
L 1275 3500 
L 2222 3500 
L 2222 3053 
L 1275 3053 
L 1275 0 
L 697 0 
L 697 3053 
L 147 3053 
L 147 3500 
L 697 3500 
L 697 3744 
Q 697 4328 969 4595 
Q 1241 4863 1831 4863 
L 2375 4863 
z
" transform="scale(0.015625)"/>
      <path id="DejaVuSans-65" d="M 3597 1894 
L 3597 1613 
L 953 1613 
Q 991 1019 1311 708 
Q 1631 397 2203 397 
Q 2534 397 2845 478 
Q 3156 559 3463 722 
L 3463 178 
Q 3153 47 2828 -22 
Q 2503 -91 2169 -91 
Q 1331 -91 842 396 
Q 353 884 353 1716 
Q 353 2575 817 3079 
Q 1281 3584 2069 3584 
Q 2775 3584 3186 3129 
Q 3597 2675 3597 1894 
z
M 3022 2063 
Q 3016 2534 2758 2815 
Q 2500 3097 2075 3097 
Q 1594 3097 1305 2825 
Q 1016 2553 972 2059 
L 3022 2063 
z
" transform="scale(0.015625)"/>
      <path id="DejaVuSans-61" d="M 2194 1759 
Q 1497 1759 1228 1600 
Q 959 1441 959 1056 
Q 959 750 1161 570 
Q 1363 391 1709 391 
Q 2188 391 2477 730 
Q 2766 1069 2766 1631 
L 2766 1759 
L 2194 1759 
z
M 3341 1997 
L 3341 0 
L 2766 0 
L 2766 531 
Q 2569 213 2275 61 
Q 1981 -91 1556 -91 
Q 1019 -91 701 211 
Q 384 513 384 1019 
Q 384 1609 779 1909 
Q 1175 2209 1959 2209 
L 2766 2209 
L 2766 2266 
Q 2766 2663 2505 2880 
Q 2244 3097 1772 3097 
Q 1472 3097 1187 3025 
Q 903 2953 641 2809 
L 641 3341 
Q 956 3463 1253 3523 
Q 1550 3584 1831 3584 
Q 2591 3584 2966 3190 
Q 3341 2797 3341 1997 
z
" transform="scale(0.015625)"/>
      <path id="DejaVuSans-74" d="M 1172 4494 
L 1172 3500 
L 2356 3500 
L 2356 3053 
L 1172 3053 
L 1172 1153 
Q 1172 725 1289 603 
Q 1406 481 1766 481 
L 2356 481 
L 2356 0 
L 1766 0 
Q 1100 0 847 248 
Q 594 497 594 1153 
L 594 3053 
L 172 3053 
L 172 3500 
L 594 3500 
L 594 4494 
L 1172 4494 
z
" transform="scale(0.015625)"/>
      <path id="DejaVuSans-75" d="M 544 1381 
L 544 3500 
L 1119 3500 
L 1119 1403 
Q 1119 906 1312 657 
Q 1506 409 1894 409 
Q 2359 409 2629 706 
Q 2900 1003 2900 1516 
L 2900 3500 
L 3475 3500 
L 3475 0 
L 2900 0 
L 2900 538 
Q 2691 219 2414 64 
Q 2138 -91 1772 -91 
Q 1169 -91 856 284 
Q 544 659 544 1381 
z
M 1991 3584 
L 1991 3584 
z
" transform="scale(0.015625)"/>
      <path id="DejaVuSans-72" d="M 2631 2963 
Q 2534 3019 2420 3045 
Q 2306 3072 2169 3072 
Q 1681 3072 1420 2755 
Q 1159 2438 1159 1844 
L 1159 0 
L 581 0 
L 581 3500 
L 1159 3500 
L 1159 2956 
Q 1341 3275 1631 3429 
Q 1922 3584 2338 3584 
Q 2397 3584 2469 3576 
Q 2541 3569 2628 3553 
L 2631 2963 
z
" transform="scale(0.015625)"/>
      <path id="DejaVuSans-5f" d="M 3263 -1063 
L 3263 -1509 
L -63 -1509 
L -63 -1063 
L 3263 -1063 
z
" transform="scale(0.015625)"/>
     </defs>
     <use xlink:href="#DejaVuSans-66"/>
     <use xlink:href="#DejaVuSans-65" x="35.205078"/>
     <use xlink:href="#DejaVuSans-61" x="96.728516"/>
     <use xlink:href="#DejaVuSans-74" x="158.007812"/>
     <use xlink:href="#DejaVuSans-75" x="197.216797"/>
     <use xlink:href="#DejaVuSans-72" x="260.595703"/>
     <use xlink:href="#DejaVuSans-65" x="299.458984"/>
     <use xlink:href="#DejaVuSans-5f" x="360.982422"/>
     <use xlink:href="#DejaVuSans-32" x="410.982422"/>
    </g>
   </g>
   <g id="legend_1">
    <g id="patch_127">
     <path d="M 64.6 78.82825 
L 192.339062 78.82825 
Q 194.339062 78.82825 194.339062 76.82825 
L 194.339062 48.472 
Q 194.339062 46.472 192.339062 46.472 
L 64.6 46.472 
Q 62.6 46.472 62.6 48.472 
L 62.6 76.82825 
Q 62.6 78.82825 64.6 78.82825 
z
" style="fill: #ffffff; opacity: 0.8; stroke: #cccccc; stroke-linejoin: miter"/>
    </g>
    <g id="patch_128">
     <path d="M 66.6 58.070437 
L 86.6 58.070437 
L 86.6 51.070437 
L 66.6 51.070437 
z
" style="fill: #ff0000; opacity: 0.4; stroke: #000000; stroke-linejoin: miter"/>
    </g>
    <g id="text_17">
     <!-- spoofed fingerprint -->
     <g transform="translate(94.6 58.070437) scale(0.1 -0.1)">
      <defs>
       <path id="DejaVuSans-73" d="M 2834 3397 
L 2834 2853 
Q 2591 2978 2328 3040 
Q 2066 3103 1784 3103 
Q 1356 3103 1142 2972 
Q 928 2841 928 2578 
Q 928 2378 1081 2264 
Q 1234 2150 1697 2047 
L 1894 2003 
Q 2506 1872 2764 1633 
Q 3022 1394 3022 966 
Q 3022 478 2636 193 
Q 2250 -91 1575 -91 
Q 1294 -91 989 -36 
Q 684 19 347 128 
L 347 722 
Q 666 556 975 473 
Q 1284 391 1588 391 
Q 1994 391 2212 530 
Q 2431 669 2431 922 
Q 2431 1156 2273 1281 
Q 2116 1406 1581 1522 
L 1381 1569 
Q 847 1681 609 1914 
Q 372 2147 372 2553 
Q 372 3047 722 3315 
Q 1072 3584 1716 3584 
Q 2034 3584 2315 3537 
Q 2597 3491 2834 3397 
z
" transform="scale(0.015625)"/>
       <path id="DejaVuSans-70" d="M 1159 525 
L 1159 -1331 
L 581 -1331 
L 581 3500 
L 1159 3500 
L 1159 2969 
Q 1341 3281 1617 3432 
Q 1894 3584 2278 3584 
Q 2916 3584 3314 3078 
Q 3713 2572 3713 1747 
Q 3713 922 3314 415 
Q 2916 -91 2278 -91 
Q 1894 -91 1617 61 
Q 1341 213 1159 525 
z
M 3116 1747 
Q 3116 2381 2855 2742 
Q 2594 3103 2138 3103 
Q 1681 3103 1420 2742 
Q 1159 2381 1159 1747 
Q 1159 1113 1420 752 
Q 1681 391 2138 391 
Q 2594 391 2855 752 
Q 3116 1113 3116 1747 
z
" transform="scale(0.015625)"/>
       <path id="DejaVuSans-6f" d="M 1959 3097 
Q 1497 3097 1228 2736 
Q 959 2375 959 1747 
Q 959 1119 1226 758 
Q 1494 397 1959 397 
Q 2419 397 2687 759 
Q 2956 1122 2956 1747 
Q 2956 2369 2687 2733 
Q 2419 3097 1959 3097 
z
M 1959 3584 
Q 2709 3584 3137 3096 
Q 3566 2609 3566 1747 
Q 3566 888 3137 398 
Q 2709 -91 1959 -91 
Q 1206 -91 779 398 
Q 353 888 353 1747 
Q 353 2609 779 3096 
Q 1206 3584 1959 3584 
z
" transform="scale(0.015625)"/>
       <path id="DejaVuSans-64" d="M 2906 2969 
L 2906 4863 
L 3481 4863 
L 3481 0 
L 2906 0 
L 2906 525 
Q 2725 213 2448 61 
Q 2172 -91 1784 -91 
Q 1150 -91 751 415 
Q 353 922 353 1747 
Q 353 2572 751 3078 
Q 1150 3584 1784 3584 
Q 2172 3584 2448 3432 
Q 2725 3281 2906 2969 
z
M 947 1747 
Q 947 1113 1208 752 
Q 1469 391 1925 391 
Q 2381 391 2643 752 
Q 2906 1113 2906 1747 
Q 2906 2381 2643 2742 
Q 2381 3103 1925 3103 
Q 1469 3103 1208 2742 
Q 947 2381 947 1747 
z
" transform="scale(0.015625)"/>
       <path id="DejaVuSans-20" transform="scale(0.015625)"/>
       <path id="DejaVuSans-69" d="M 603 3500 
L 1178 3500 
L 1178 0 
L 603 0 
L 603 3500 
z
M 603 4863 
L 1178 4863 
L 1178 4134 
L 603 4134 
L 603 4863 
z
" transform="scale(0.015625)"/>
       <path id="DejaVuSans-6e" d="M 3513 2113 
L 3513 0 
L 2938 0 
L 2938 2094 
Q 2938 2591 2744 2837 
Q 2550 3084 2163 3084 
Q 1697 3084 1428 2787 
Q 1159 2491 1159 1978 
L 1159 0 
L 581 0 
L 581 3500 
L 1159 3500 
L 1159 2956 
Q 1366 3272 1645 3428 
Q 1925 3584 2291 3584 
Q 2894 3584 3203 3211 
Q 3513 2838 3513 2113 
z
" transform="scale(0.015625)"/>
       <path id="DejaVuSans-67" d="M 2906 1791 
Q 2906 2416 2648 2759 
Q 2391 3103 1925 3103 
Q 1463 3103 1205 2759 
Q 947 2416 947 1791 
Q 947 1169 1205 825 
Q 1463 481 1925 481 
Q 2391 481 2648 825 
Q 2906 1169 2906 1791 
z
M 3481 434 
Q 3481 -459 3084 -895 
Q 2688 -1331 1869 -1331 
Q 1566 -1331 1297 -1286 
Q 1028 -1241 775 -1147 
L 775 -588 
Q 1028 -725 1275 -790 
Q 1522 -856 1778 -856 
Q 2344 -856 2625 -561 
Q 2906 -266 2906 331 
L 2906 616 
Q 2728 306 2450 153 
Q 2172 0 1784 0 
Q 1141 0 747 490 
Q 353 981 353 1791 
Q 353 2603 747 3093 
Q 1141 3584 1784 3584 
Q 2172 3584 2450 3431 
Q 2728 3278 2906 2969 
L 2906 3500 
L 3481 3500 
L 3481 434 
z
" transform="scale(0.015625)"/>
      </defs>
      <use xlink:href="#DejaVuSans-73"/>
      <use xlink:href="#DejaVuSans-70" x="52.099609"/>
      <use xlink:href="#DejaVuSans-6f" x="115.576172"/>
      <use xlink:href="#DejaVuSans-6f" x="176.757812"/>
      <use xlink:href="#DejaVuSans-66" x="237.939453"/>
      <use xlink:href="#DejaVuSans-65" x="273.144531"/>
      <use xlink:href="#DejaVuSans-64" x="334.667969"/>
      <use xlink:href="#DejaVuSans-20" x="398.144531"/>
      <use xlink:href="#DejaVuSans-66" x="429.931641"/>
      <use xlink:href="#DejaVuSans-69" x="465.136719"/>
      <use xlink:href="#DejaVuSans-6e" x="492.919922"/>
      <use xlink:href="#DejaVuSans-67" x="556.298828"/>
      <use xlink:href="#DejaVuSans-65" x="619.775391"/>
      <use xlink:href="#DejaVuSans-72" x="681.298828"/>
      <use xlink:href="#DejaVuSans-70" x="722.412109"/>
      <use xlink:href="#DejaVuSans-72" x="785.888672"/>
      <use xlink:href="#DejaVuSans-69" x="827.001953"/>
      <use xlink:href="#DejaVuSans-6e" x="854.785156"/>
      <use xlink:href="#DejaVuSans-74" x="918.164062"/>
     </g>
    </g>
    <g id="patch_129">
     <path d="M 66.6 72.748562 
L 86.6 72.748562 
L 86.6 65.748562 
L 66.6 65.748562 
z
" style="fill: #0000ff; opacity: 0.4; stroke: #000000; stroke-linejoin: miter"/>
    </g>
    <g id="text_18">
     <!-- fingerprint -->
     <g transform="translate(94.6 72.748562) scale(0.1 -0.1)">
      <use xlink:href="#DejaVuSans-66"/>
      <use xlink:href="#DejaVuSans-69" x="35.205078"/>
      <use xlink:href="#DejaVuSans-6e" x="62.988281"/>
      <use xlink:href="#DejaVuSans-67" x="126.367188"/>
      <use xlink:href="#DejaVuSans-65" x="189.84375"/>
      <use xlink:href="#DejaVuSans-72" x="251.367188"/>
      <use xlink:href="#DejaVuSans-70" x="292.480469"/>
      <use xlink:href="#DejaVuSans-72" x="355.957031"/>
      <use xlink:href="#DejaVuSans-69" x="397.070312"/>
      <use xlink:href="#DejaVuSans-6e" x="424.853516"/>
      <use xlink:href="#DejaVuSans-74" x="488.232422"/>
     </g>
    </g>
   </g>
  </g>
 </g>
 <defs>
  <clipPath id="p514d223646">
   <rect x="57.6" y="41.472" width="357.12" height="266.112"/>
  </clipPath>
 </defs>
</svg>
